# xmcd
#
# Track frame offsets: 
#        150
#        23801
#        45243
#        68806
#        90975
#        113981
#        138808
#        162792
#        182916
#        207914
#        230646
#
# Disc length: 3344 seconds
#
# Revision: 0
# Processed by: cddbd v1.5.2PL0 Copyright (c) Steve Scherf et al.
# Submitted via: ExactAudioCopy v0.99pb5
#
DISCID=880d0e0b
DTITLE=Long Nhat - Gio ve mien xuoi
DYEAR=2012
DGENRE=Country
TTITLE0=Gio ve mien xuoi
TTITLE1=Anh con yeu em
TTITLE2=Lk Ve que ngoai-May nhip cau tre
TTITLE3=Than kinh thuong nho
TTITLE4=Duong xua le bong
TTITLE5=Anh di mua cuoi
TTITLE6=Chieu chieu
TTITLE7=Ngoi ca que huong em
TTITLE8=Chuyen pha di vang
TTITLE9=Cong cha nghia me
TTITLE10=Bien hen Nha Trang
EXTD=
EXTT0=
EXTT1=
EXTT2=
EXTT3=
EXTT4=
EXTT5=
EXTT6=
EXTT7=
EXTT8=
EXTT9=
EXTT10=
PLAYORDER=
